<svg width="499.9" height="75.201" viewBox="0 0 499.9 75.201" xmlns="http://www.w3.org/2000/svg">
  <path d="m283.4 69-6.2 6-26.9-27.7V74h-9V0h9v42.3L273.8 21l5.2 5.7-20.1 17.8L283.4 69Zm51.1 0-6.2 6-26.9-27.7V74h-9V0h9v42.3L324.9 21l5.2 5.7L310 44.5 334.5 69Zm-143.4 5h-9V22h8.7v8.7q2.8-4.2 7.15-7.05a17.316 17.316 0 0 1 7.106-2.625 22.629 22.629 0 0 1 3.244-.225 23.225 23.225 0 0 1 5.065.518q5.094 1.138 8.085 4.782 4.125 5.026 4.338 13.109a33.764 33.764 0 0 1 .012.891V74h-9V41.1a19.265 19.265 0 0 0-.342-3.741q-.439-2.214-1.439-3.962a10.966 10.966 0 0 0-.869-1.297 8.579 8.579 0 0 0-6.277-3.353 12.061 12.061 0 0 0-1.073-.047 13.122 13.122 0 0 0-6.849 1.964 17.353 17.353 0 0 0-1.851 1.286q-4.1 3.25-7 7.65V74Zm-132.7-.2V4.2a100.907 100.907 0 0 1 1.856-.194q2.897-.277 6.72-.499A270.552 270.552 0 0 1 67.1 3.5a168.416 168.416 0 0 1 4.837-.205q2.471-.071 5.208-.089A285.352 285.352 0 0 1 79 3.2q8.4 0 14.259 2.089A22.604 22.604 0 0 1 98.7 8.05a16.711 16.711 0 0 1 4.563 4.657q2.191 3.433 2.328 7.894a19.526 19.526 0 0 1 .009.599 17.052 17.052 0 0 1-.627 4.72 13.798 13.798 0 0 1-2.323 4.63Q99.7 34.4 94.1 36.9a30.217 30.217 0 0 1 4.636 2.06q3.477 1.934 5.664 4.59 3.5 4.25 3.5 10.45 0 9.315-7.21 14.928a22.979 22.979 0 0 1-.29.222 24.681 24.681 0 0 1-7.377 3.71Q86.979 74.8 78.6 74.8a221.836 221.836 0 0 1-8.08-.142 187.566 187.566 0 0 1-3.47-.158 227.449 227.449 0 0 1-2.584-.156q-2.807-.187-4.871-.406A65.535 65.535 0 0 1 58.4 73.8Zm-19.6.2H0V4h38.8v70ZM156 26.2V22h8.2v39.4a12.15 12.15 0 0 0 .102 1.636q.332 2.434 1.748 3.314 1.85 1.15 4.05 1.15l-1.9 7a17.722 17.722 0 0 1-4.265-.472q-5.637-1.4-7.232-6.948a13.59 13.59 0 0 1-.103-.38 21.307 21.307 0 0 1-3.11 3.426 28.498 28.498 0 0 1-3.14 2.424q-3.95 2.65-10.05 2.65-6.5 0-11.8-3.3a22.947 22.947 0 0 1-7.413-7.527 27.923 27.923 0 0 1-1.037-1.823 27.228 27.228 0 0 1-2.63-7.942 36.644 36.644 0 0 1-.52-6.308 33.142 33.142 0 0 1 .997-8.269 27.968 27.968 0 0 1 2.153-5.731q3.15-6.2 8.7-9.85a22.297 22.297 0 0 1 11.195-3.606 27.388 27.388 0 0 1 1.555-.044 22.584 22.584 0 0 1 4.794.49 18.703 18.703 0 0 1 3.356 1.06 26.002 26.002 0 0 1 4.287 2.294A22.103 22.103 0 0 1 156 26.2Zm283.7 31.5V0h9v56.8a20.644 20.644 0 0 0 .188 2.888q.462 3.264 2.062 5.112a7.363 7.363 0 0 0 4.584 2.476 10.724 10.724 0 0 0 1.666.124q1.9 0 3.75-.45a22.192 22.192 0 0 0 1.463-.406q.935-.297 1.687-.644l2.2 7.3q-1.399.622-3.312 1.123a34.978 34.978 0 0 1-1.138.277 23.816 23.816 0 0 1-3.155.485A30.514 30.514 0 0 1 456 75.2a20.862 20.862 0 0 1-4.89-.554 17.544 17.544 0 0 1-3.41-1.196 12.683 12.683 0 0 1-5.325-4.765 15.856 15.856 0 0 1-.525-.885q-1.734-3.146-2.07-7.788a32.105 32.105 0 0 1-.08-2.312Zm33.6 0V0h9v56.8a20.644 20.644 0 0 0 .188 2.888q.462 3.264 2.062 5.112a7.363 7.363 0 0 0 4.584 2.476 10.724 10.724 0 0 0 1.666.124q1.9 0 3.75-.45a22.192 22.192 0 0 0 1.463-.406q.935-.297 1.687-.644l2.2 7.3q-1.399.622-3.312 1.123a34.978 34.978 0 0 1-1.138.277 23.816 23.816 0 0 1-3.155.485 30.514 30.514 0 0 1-2.695.115 20.862 20.862 0 0 1-4.89-.554 17.544 17.544 0 0 1-3.41-1.196 12.683 12.683 0 0 1-5.325-4.765 15.856 15.856 0 0 1-.525-.885q-1.734-3.146-2.07-7.788a32.105 32.105 0 0 1-.08-2.312ZM352.5 74h-9V22h8.7v11.3q1.3-3.3 3.5-6.15 2.2-2.85 5.5-4.6a14.817 14.817 0 0 1 4.68-1.524 19.459 19.459 0 0 1 3.02-.226q1.5 0 3 .15a18.972 18.972 0 0 1 1.055.134q.5.078.927.178a8.817 8.817 0 0 1 .518.138l-2.7 9.3a9.763 9.763 0 0 0-2.145-.612q-1.096-.188-2.355-.188a12.958 12.958 0 0 0-6.63 1.846 15.609 15.609 0 0 0-.42.254q-3.328 2.086-5.472 6.442a22.927 22.927 0 0 0-.028.058q-1.763 3.607-2.08 8.828a39.09 39.09 0 0 0-.07 2.372V74Zm36.5-2.25a24.559 24.559 0 0 0 4.598 2.09q4.055 1.36 8.702 1.36 7.4 0 13.25-3.4t9.25-9.55a26.255 26.255 0 0 0 2.653-7.141 34.184 34.184 0 0 0 .747-7.309 34.542 34.542 0 0 0-.485-5.909 25.795 25.795 0 0 0-2.965-8.441q-3.45-6.05-9.3-9.35a24.848 24.848 0 0 0-4.641-2.027A27.738 27.738 0 0 0 402.3 20.8a31.325 31.325 0 0 0-1.58.039A26.169 26.169 0 0 0 389.1 24.1q-5.9 3.3-9.3 9.4a26.023 26.023 0 0 0-2.749 7.59A35.006 35.006 0 0 0 376.4 48a34.82 34.82 0 0 0 .265 4.354 27.451 27.451 0 0 0 3.085 9.796q3.35 6.15 9.25 9.6ZM6.8 10.8v56.4H32V10.8H6.8Zm395.5 56.4q7.9 0 12.3-5.35a18.802 18.802 0 0 0 3.819-8.09A27.105 27.105 0 0 0 419 48q0-5.2-2.2-9.55a19.198 19.198 0 0 0-4.172-5.569 18.17 18.17 0 0 0-1.778-1.431q-3.75-2.65-8.55-2.65a19.249 19.249 0 0 0-5.226.672A14.037 14.037 0 0 0 390 34a17.878 17.878 0 0 0-3.674 7.374q-.726 2.932-.726 6.426 0 5.2 2.2 9.65a19.437 19.437 0 0 0 3.53 5.04 17.627 17.627 0 0 0 2.42 2.06q3.75 2.65 8.55 2.65Zm-247.1-6.5V32.8q-2.7-1.9-5.95-3.05t-6.85-1.15a15.924 15.924 0 0 0-4.971.754 14.024 14.024 0 0 0-3.479 1.696 16.301 16.301 0 0 0-5.019 5.424 19.962 19.962 0 0 0-.731 1.376 20.663 20.663 0 0 0-1.753 5.677A27.678 27.678 0 0 0 126.1 48q0 5.6 2.1 9.95a17.602 17.602 0 0 0 3.106 4.546A15.697 15.697 0 0 0 134 64.75q3.7 2.45 8.3 2.45 3.8 0 7.2-1.85 3.4-1.85 5.7-4.65ZM79.3 41.6H67.9v24.7q5.3.6 11.4.6 8.9 0 13.9-3.2t5-9.3a11.728 11.728 0 0 0-.872-4.6q-1.102-2.613-3.595-4.488A14.027 14.027 0 0 0 93.3 45a16.7 16.7 0 0 0-4.674-2.201Q84.703 41.6 79.3 41.6ZM67.9 11.4v22.8h11q7.9 0 12.55-3.3t4.65-8.5a10.798 10.798 0 0 0-.674-3.899q-1.087-2.83-3.926-4.651a16.643 16.643 0 0 0-4.486-1.964Q83.525 10.9 78.9 10.9q-3.3 0-6 .15t-5 .35Z" vector-effect="non-scaling-stroke" stroke-linecap="round" font-size="12" stroke="#000" stroke-width=".945" fill="none" style="stroke:#000;stroke-width:.25mm;fill:none"/>
  <rect x="-15" width="66" height="75" rx="10" fill="#668aff" class="ccompli2" stop-color="#668aff"/>
  <circle cx="16" cy="16" r="13"/>
  <circle cx="14" cy="14" r="2" fill="#fff"/>
  <circle cx="38" cy="16" r="8"/>
  <circle cx="36" cy="14" r="2" fill="#fff"/>
</svg>
